<svg xmlns="http://www.w3.org/2000/svg" viewBox="0 0 512 512" style="height: 512px; width: 512px;"><defs><radialGradient id="gradient-1"><stop offset="0%" stop-color="#f8e71c" stop-opacity="1"></stop><stop offset="100%" stop-color="#f5a623" stop-opacity="1"></stop></radialGradient></defs><path d="M0 0h512v512H0z" fill="#ffffff" fill-opacity="1"></path><g class="" transform="translate(0,0)" style="touch-action: none;"><path d="M256 16c25 24 100 72 150 72v96c0 96-75 240-150 312-75-72-150-216-150-312V88c50 0 125-48 150-72z" fill="url(#gradient-1)"></path></g><g class="" transform="translate(132,79)" style="touch-action: none;"><g><circle cx="128" cy="128" r="128" fill="#f8e71c" fill-opacity="1"></circle><circle stroke="#f5a623" stroke-opacity="1" fill="#f8e71c" fill-opacity="1" stroke-width="18" cx="128" cy="128" r="101"></circle><path fill="#f5a623" fill-opacity="1" d="M128 53.346l8.997 46.964 34.883-32.706-20.325 43.283L199 104.93 157.115 128 199 151.07l-47.445-5.957 20.325 43.283-34.883-32.706L128 202.654l-8.997-46.964-34.883 32.706 20.325-43.283L57 151.07 98.885 128 57 104.93l47.445 5.957L84.12 67.604l34.883 32.706z"></path></g></g></svg>